**ABCDEFGHIJKLMNOPQRSTUVWXYZabcdefghijklmnopqrstuvwxyz**************************
**PARASOLID !"#$%&'()*+,-./:;<=>?@[\]^_`{|}~0123456789**************************
**PART1;
MC=unknown;
MC_MODEL=unknown;
MC_ID=unknown;
OS=unknown;
OS_RELEASE=unknown;
FRU=Parasolid 37.0.209;
APPL=Onshape;
SITE=unknown;
USER=unknown;
FORMAT=text;
GUISE=transmit;
KEY=BTGapi::writeModels_.xmt;
FILE=BTGapi::writeModels_.xmt;
DATE=2025-06-17T14:00:31 (UTC);
**PART2;
SCH=SCH_3700209_36001;
USFLD_SIZE=0;
**PART3;
**END_OF_HEADER*****************************************************************
T51 : TRANSMIT FILE created by modeller version 370020923 SCH_3700209_36001_1300
6231 0 12 36 CCCI7 lattice222 0 CCCI4 mesh1006 0 I8 polyline1008 0 CCCCCCCDI5 ow
ner1040 0 CCCI16 boundary_lattice222 0 CCCI13 boundary_mesh1006 0 I17 boundary_p
olyline1008 0 CCCA16 index_map_offset0 0 1 dA9 index_map82 0 A17 node_id_index_m
ap82 0 A20 schema_embedding_map82 0 A5 child12 0 A14 lowest_node_id0 0 1 dA16 me
sh_offset_data206 0 Z1 801 2 3 0 0 0 0 0 0 0 1e3 1e-8 0 4 0 1 0 1 2 5 0 6 7 8 0
 0 9 10 11 0 0 0 0 0 0 0 81 255 1 2 779 12 1 13 0 0 0 14 70 11 CI9 list_type0 0
 1 uI10 notransmit0 0 1 lCCCDCCDI12 finger_index0 0 1 dI12 finger_block1012 0 CZ
3 0 4 T1 0 0 5 20 1 15 15 13 255 5 299 0 1 0 16 0 0 17 0 54 255 6 665 0 18 19 0
 0 +-.044 .0265 .0015 0 0 1 .0095 5e-4 1 0 0 32 255 7 614 0 20 21 0 0 +.0205 -.0
37 .0015 -.707106781186548 .707106781186547 0 .707106781186547 .707106781186548
 0 .000707106781186548 5e-4 29 255 8 506 0 11 22 0 -.02 -.0075 .0015 19 9 CCCCCC
I5 frame230 0 CA5 owner12 0 Z9 100 0 1 17 0 23 0 V0 16 255 10 523 24 ?25 0 26 27
 0 0 1 18 255 11 503 28 29 0 30 8 ?1 81 1 28 717 31 11 0 0 32 33 34 17 255 29 0
 35 36 37 11 38 39 0 40 +18 30 494 41 42 11 43 22 ?1 81 1 41 719 31 30 0 0 33 44
 45 17 42 0 46 47 48 30 49 50 0 37 +18 43 485 51 52 30 53 54 ?1 29 22 497 0 30 5
4 8 .02 -.0075 .0015 29 54 488 0 43 55 22 .02 -.0375 .0015 29 55 479 0 53 56 54
 .055 -.0375 .0015 18 53 476 57 58 43 59 55 ?1 29 56 470 0 59 60 55 .055 .0375 .
0015 18 59 467 61 62 53 63 56 ?1 29 60 461 0 63 64 56 -.055 .0375 .0015 18 63 45
8 65 66 59 67 60 ?1 29 64 451 0 67 68 60 -.0545 -.037 .002 18 67 449 69 70 63 71
 64 ?1 29 68 447 0 71 72 64 -.0545 .037 .002 18 71 445 73 74 67 75 68 ?1 29 72 4
43 0 75 76 68 .0545 .037 .002 18 75 441 77 78 71 79 72 ?1 29 76 439 0 79 80 72 .
0545 -.037 .002 18 79 437 81 82 75 83 76 ?1 29 80 435 0 83 84 76 .0205 -.037 .00
2 18 83 433 85 86 79 87 80 ?1 29 84 431 0 87 88 80 -.0205 -.037 .002 18 87 429 8
9 90 83 91 84 ?1 29 88 427 0 91 92 84 .0205 -.007 .002 18 91 425 33 93 87 94 88
 ?1 29 92 424 0 94 95 88 -.0205 -.007 .002 18 94 422 32 96 91 97 92 ?1 29 95 404
 0 97 98 92 -.055 -.0375 .0015 18 97 401 99 100 94 101 95 ?1 29 98 400 0 101 102
 95 -.02 -.0375 .0015 18 101 397 103 104 97 105 98 ?1 29 102 241 0 105 106 98 -.
055 -.0375 0 18 105 198 107 108 101 109 102 ?1 29 106 242 0 109 110 102 -.055 .0
375 0 18 109 202 111 112 105 113 106 ?1 29 110 243 0 113 114 106 .055 .0375 0 18
 113 206 115 116 109 117 110 ?1 29 114 244 0 117 118 110 .055 -.0375 0 18 117 21
0 119 120 113 121 114 ?1 29 118 245 0 121 122 114 .02 -.0375 0 18 121 214 123 12
4 117 125 118 ?1 29 122 246 0 125 126 118 .02 -.0075 0 18 125 218 127 47 121 128
 122 ?1 29 126 247 0 128 129 122 -.02 -.0075 0 18 128 222 130 36 125 131 126 ?1
 29 129 248 0 131 0 126 -.02 -.0375 0 18 131 226 132 133 128 0 129 ?1 81 1 132 3
42 31 131 0 0 127 123 134 17 133 0 135 136 104 131 137 138 0 139 +15 255 135 277
 0 40 140 0 17 136 0 135 40 133 128 139 141 0 142 +17 104 0 135 133 40 101 143 1
44 0 137 +17 137 0 145 146 147 101 133 138 0 148 -16 138 398 149 ?133 150 151 15
2 0 0 1 17 139 0 153 154 142 131 136 141 0 147 -15 153 155 0 154 155 156 17 154
 0 153 157 139 105 147 158 0 159 +17 142 0 153 139 160 128 161 162 0 0 -16 141 1
90 163 ?136 162 158 164 0 0 1 17 147 0 145 137 108 131 154 158 0 0 -15 145 279 0
 137 16 0 17 108 0 145 147 146 105 165 166 0 154 +16 158 194 167 ?154 141 20 168
 0 0 1 81 1 167 356 31 158 0 0 169 170 171 16 20 569 172 ?173 158 174 7 0 0 1 30
 255 168 240 0 158 0 164 0 +-.0375 -.0375 0 -1 -1982541115402065e-31 0 30 164 23
9 0 141 168 175 0 +-.02 -.0225 0 -1156482317317872e-31 1 0 30 175 238 0 162 164
 176 0 +3469446951953615e-33 -.0075 0 1 0 0 16 162 186 177 ?161 178 141 175 0 0
 1 30 176 237 0 178 175 179 0 +.02 -.0225 0 -1156482317317872e-31 1 0 16 178 182
 180 ?160 181 162 176 0 0 1 30 179 236 0 181 176 182 0 +.0375 -.0375 0 -1 -19825
41115402065e-31 0 16 181 178 169 ?183 184 178 179 0 0 1 30 182 235 0 184 179 185
 0 +.055 1387778780781446e-32 0 0 1 0 16 184 174 186 ?187 188 181 182 0 0 1 30 1
85 234 0 188 182 189 0 +0 .0375 0 -1 0 0 16 188 170 170 ?190 191 184 185 0 0 1 3
0 189 233 0 191 185 192 0 +-.055 -693889390390723e-32 0 0 1 0 16 191 166 193 ?15
7 194 188 189 0 0 1 31 255 192 232 0 194 189 195 0 +.033 -.0265 0 0 0 1 1 0 0 .0
09 16 194 162 196 ?197 198 191 192 0 0 1 31 195 231 0 198 192 199 0 +-.044 .0265
 0 0 0 1 1 0 0 .009 16 198 158 200 ?201 166 194 195 0 0 1 30 199 291 0 166 195 2
02 0 +-.055 -.0375 .002 0 0 -1 16 166 402 203 ?108 204 198 199 0 0 1 30 202 292
 0 204 199 205 0 +-.055 .0375 .002 0 0 -1 16 204 459 206 ?112 207 166 202 0 0 1
 30 205 293 0 207 202 208 0 +.055 .0375 .002 0 0 -1 16 207 468 209 ?116 210 204
 205 0 0 1 30 208 294 0 210 205 211 0 +.055 -.0375 .002 0 0 -1 16 210 477 212 ?1
20 213 207 208 0 0 1 30 211 295 0 213 208 214 0 +.02 -.0375 .002 0 0 -1 16 213 4
86 215 ?124 216 210 211 0 0 1 30 214 296 0 216 211 217 0 +.02 -.0075 .002 0 0 -1
 16 216 495 218 ?47 151 213 214 0 0 1 30 217 297 0 151 214 152 0 +-.02 -.0075 .0
02 0 0 -1 16 151 504 219 ?36 138 216 217 0 0 1 30 152 298 0 138 217 220 0 +-.02
 -.0375 .002 0 0 -1 30 220 407 0 150 152 221 0 +-.0375 -.0375 .0015 -1 -19825411
15402065e-31 0 16 150 405 222 ?146 223 138 220 0 0 1 31 221 413 0 223 220 224 0
 --.044 .0265 .002 0 0 1 1 0 0 .0095 16 223 410 225 ?226 227 150 221 0 0 1 31 22
4 419 0 227 221 228 0 -.033 -.0265 .002 0 0 1 1 0 0 .0095 16 227 416 229 ?230 23
1 223 224 0 0 1 30 228 428 0 231 224 232 0 +.02 -.007 .002 1 0 0 16 231 426 233
 ?93 234 227 228 0 0 1 30 232 432 0 234 228 235 0 +-.0205 -.0075 .002 -115648231
7317872e-31 1 0 16 234 430 236 ?96 237 231 232 0 0 1 30 235 436 0 237 232 238 0
 -.0205 237078875050164e-32 .002 -1156482317317872e-31 1 0 16 237 434 239 ?86 24
0 234 235 0 0 1 30 238 440 0 240 235 241 0 -733540212698765e-32 -.037 .002 -1 -1
982541115402065e-31 0 16 240 438 242 ?82 243 237 238 0 0 1 30 241 444 0 243 238
 244 0 +.0545 .0375 .002 0 1 0 16 243 442 245 ?78 246 240 241 0 0 1 30 244 448 0
 246 241 247 0 +-.055 .037 .002 -1 0 0 16 246 446 248 ?74 249 243 244 0 0 1 30 2
47 452 0 249 244 250 0 --.0545 0 .002 0 1 0 16 249 450 251 ?70 252 246 247 0 0 1
 30 250 455 0 252 247 253 0 -733540212698764e-32 -.037 .002 -1 -1982541115402065
e-31 0 16 252 453 254 ?255 256 249 250 0 0 1 30 253 464 0 256 250 257 0 +-.055 -
693889390390723e-32 .0015 0 1 0 16 256 462 258 ?66 259 252 253 0 0 1 30 257 473
 0 259 253 260 0 -.055 .0375 .0015 -1 0 0 16 259 471 261 ?62 262 256 257 0 0 1 3
0 260 482 0 262 257 263 0 -.055 -.0375 .0015 0 1 0 16 262 480 264 ?58 265 259 26
0 0 0 1 30 263 491 0 265 260 266 0 +.0375 -.0375 .0015 -1 -1982541115402065e-31
 0 16 265 489 267 ?52 50 262 263 0 0 1 30 266 500 0 50 263 268 0 +.02 -.0225 .00
15 -1156482317317872e-31 1 0 16 50 498 269 ?42 144 265 266 0 0 1 30 268 509 0 14
4 266 270 0 --.02 -.0375 .0015 -1156482317317872e-31 1 0 16 144 507 271 ?104 39
 50 268 0 0 1 30 270 514 0 39 268 272 0 --.02 -.0075 .0015 1 0 0 16 39 512 273 ?
29 26 144 270 0 0 1 31 272 520 0 26 270 27 0 +.033 -.0265 .0015 0 0 1 1 0 0 .009
 16 26 517 274 ?275 10 39 272 0 0 1 31 27 526 0 10 272 276 0 +-.044 .0265 .0015
 0 0 1 1 0 0 .009 32 276 621 0 277 27 278 0 --.0545 -.037 .0015 -.70710678118654
8 .707106781186548 0 .707106781186548 .707106781186548 0 .000707106781186548 5e-
4 16 277 589 279 ?100 280 0 276 0 0 1 32 278 620 0 280 276 281 0 +-.0205 -.037 .
0015 -.707106781186547 -.707106781186548 0 .707106781186548 -.707106781186547 0
 .000707106781186548 5e-4 16 280 587 282 ?90 283 277 278 0 0 1 32 281 619 0 283
 278 284 0 --.0545 .037 .0015 .707106781186548 .707106781186548 0 .7071067811865
48 -.707106781186548 0 .000707106781186548 5e-4 16 283 584 285 ?286 287 280 281
 0 0 1 32 284 618 0 287 281 288 0 +-.0205 -.007 .0015 -.707106781186548 -.707106
781186548 0 .707106781186548 -.707106781186548 0 .000707106781186548 5e-4 16 287
 581 289 ?290 291 283 284 0 0 1 32 288 617 0 291 284 292 0 -.0545 .037 .0015 .70
7106781186548 -.707106781186548 0 -.707106781186548 -.707106781186548 0 .0007071
06781186548 5e-4 16 291 578 293 ?294 295 287 288 0 0 1 32 292 616 0 295 288 21 0
 +.0205 -.007 .0015 -.707106781186548 .707106781186548 0 .707106781186548 .70710
6781186548 0 .000707106781186548 5e-4 16 295 575 296 ?297 174 291 292 0 0 1 32 2
1 615 0 174 292 7 0 -.0545 -.037 .0015 -.707106781186548 -.707106781186548 0 -.7
07106781186548 .707106781186548 0 .000707106781186548 5e-4 16 174 572 44 ?298 20
 295 21 0 0 1 81 1 44 720 31 174 0 0 41 172 299 17 298 0 300 301 302 53 303 174
 0 0 +15 300 553 0 298 304 0 17 301 0 300 305 298 59 58 262 0 294 -17 302 0 300
 298 305 79 78 243 0 0 -17 303 0 306 307 308 79 298 174 0 302 -15 306 549 0 303
 309 0 17 307 0 306 310 303 83 82 240 0 173 -17 308 0 306 303 310 53 52 265 0 29
8 -17 310 0 306 308 307 43 173 20 0 49 -17 52 0 311 124 312 43 308 265 0 48 +15
 311 271 0 312 313 0 17 124 0 311 314 52 121 48 213 0 315 +17 312 0 311 52 314 5
3 120 210 0 308 -17 48 0 46 42 315 43 124 213 0 310 -15 46 273 0 48 316 0 17 315
 0 46 48 47 121 160 178 0 183 -17 47 0 46 315 42 125 37 216 0 161 +17 160 0 153
 142 183 125 315 178 0 0 +17 183 0 153 160 317 121 314 181 0 0 +17 317 0 153 183
 318 117 187 184 0 314 -17 314 0 311 312 124 117 183 181 0 0 -17 318 0 153 317 1
57 113 190 188 0 0 -17 187 0 319 320 120 113 317 184 0 318 +15 319 269 0 320 321
 0 17 320 0 319 58 187 59 116 207 0 301 -17 120 0 319 187 58 117 312 210 0 317 +
17 58 0 319 120 320 53 301 262 0 312 +17 116 0 322 190 62 113 320 207 0 187 +15
 322 267 0 323 324 0 17 190 0 322 323 116 109 318 188 0 157 +17 62 0 322 116 323
 59 325 259 0 320 +17 323 0 322 62 190 63 112 204 0 325 -17 325 0 326 327 294 63
 62 259 0 286 -15 326 557 0 294 328 0 17 327 0 326 329 325 71 286 283 0 330 -17
 294 0 326 325 329 59 305 291 0 0 +17 286 0 331 332 330 63 327 283 0 0 +15 331 5
61 0 286 333 0 17 332 0 331 334 286 97 66 256 0 146 -17 330 0 331 286 334 71 70
 249 0 0 -17 334 0 331 330 332 67 100 277 0 0 -17 70 0 335 255 74 67 330 249 0 3
36 +15 335 423 0 70 337 338 17 255 0 335 96 70 87 336 252 0 0 +17 74 0 335 70 78
 71 329 246 0 327 +17 336 0 339 100 90 67 255 252 0 334 -15 339 563 0 90 340 0 1
7 100 0 339 341 336 97 334 277 0 332 +17 90 0 339 336 341 87 148 280 0 342 +17 3
41 0 339 90 100 101 146 150 0 0 -17 148 0 343 143 342 101 90 280 0 341 -17 342 0
 343 148 290 87 96 234 0 255 -15 343 559 0 290 344 0 17 290 0 343 342 143 94 345
 287 0 0 +17 96 0 335 93 255 94 342 234 0 346 +17 93 0 335 86 96 91 346 231 0 34
7 +17 346 0 348 345 297 94 93 231 0 290 -15 348 555 0 297 349 0 17 345 0 348 38
 346 11 290 287 0 143 -17 297 0 348 346 38 91 350 295 0 0 +17 38 0 348 297 345 3
0 29 39 0 0 -17 350 0 351 49 347 30 297 295 0 38 -15 351 551 0 173 352 0 17 49 0
 351 173 350 43 42 50 0 0 -17 347 0 351 350 173 91 86 237 0 297 -17 173 0 351 34
7 49 83 310 20 0 0 +17 86 0 335 82 93 83 347 237 0 307 +17 82 0 335 78 86 79 307
 240 0 303 +17 78 0 335 74 82 75 302 243 0 305 +17 305 0 300 302 301 75 294 291
 0 329 -17 329 0 326 294 327 75 74 246 0 0 -14 255 352 550 353 ?304 309 351 5 35
4 +0 0 304 309 23 81 1 353 793 355 352 356 0 357 358 359 14 304 552 358 ?349 352
 300 5 360 +0 0 349 352 23 14 309 548 357 ?352 155 306 5 361 +0 0 352 155 23 51
 255 354 607 0 352 360 361 0 +.0205 -.0225 .0015 -1156482317317872e-31 1 0 5e-4
 -1 -1156482317317872e-31 0 13 23 101 0 0 0 0 0 0 9 16 14 16 280 362 ?140 0 145
 5 363 +0 0 140 0 23 81 1 362 780 355 16 364 0 0 365 366 14 140 278 365 ?367 16
 135 5 368 -0 0 367 16 23 50 255 363 290 0 16 368 369 0 +-.0375 -.0375 .002 1982
541115402065e-31 -1 0 1 1982541115402065e-31 0 50 368 289 0 140 370 363 0 +-.02
 -.0225 .002 -1 -1156482317317872e-31 0 1156482317317872e-31 -1 0 51 369 613 0 3
40 363 371 0 +-.0375 -.037 .0015 -1 -1982541115402065e-31 0 5e-4 198254111540206
5e-31 -1 0 14 340 562 372 ?373 333 339 5 369 +0 0 373 333 23 51 371 612 0 333 36
9 374 0 +-.0545 -693889390390723e-32 .0015 0 1 0 5e-4 0 0 1 14 333 560 375 ?340
 344 331 5 371 +0 0 340 344 23 51 374 611 0 344 371 376 0 +-.0205 -2370788750501
64e-32 .0015 1156482317317872e-31 -1 0 5e-4 1 1156482317317872e-31 0 14 344 558
 377 ?333 328 343 5 374 +0 0 333 328 23 51 376 610 0 328 374 378 0 +0 .037 .0015
 1 0 0 5e-4 0 0 -1 14 328 556 379 ?344 349 326 5 376 +0 0 344 349 23 51 378 609
 0 349 376 360 0 +0 -.007 .0015 -1 0 0 5e-4 0 0 1 14 349 554 380 ?328 304 348 5
 378 +0 0 328 304 23 51 360 608 0 304 378 354 0 +.0545 0 .0015 0 -1 0 5e-4 0 0 -
1 81 1 380 795 355 349 381 0 358 379 382 80 7 CCCCCDI12 legal_owners0 17 1 lCZ1
 355 0 383 8001 0 0 0 0 3 5 0 0 0 FFFFTFTFFFFFFFFFF2 81 1 381 761 31 349 0 380 3
84 385 386 81 1 358 794 355 304 387 0 353 380 388 81 1 379 796 355 328 389 0 380
 377 390 83 255 3 382 .615686274509804 .811764705882353 .929411764705882 81 1 38
9 758 31 328 0 379 391 387 392 81 1 377 797 355 344 385 0 379 375 393 83 3 390 .
615686274509804 .811764705882353 .929411764705882 81 1 385 762 31 344 0 377 381
 356 394 81 1 375 798 355 333 384 0 377 372 395 83 3 393 .615686274509804 .81176
4705882353 .929411764705882 81 1 384 760 31 333 0 375 387 381 396 81 1 372 799 3
55 340 391 0 375 397 398 83 3 395 .615686274509804 .811764705882353 .92941176470
5882 81 1 391 757 31 340 0 372 399 389 400 81 1 397 800 355 373 401 0 372 402 40
3 83 3 398 .615686274509804 .811764705882353 .929411764705882 14 373 645 397 ?18
 340 404 5 19 +0 0 18 340 23 81 1 401 764 31 373 0 397 356 405 406 81 1 402 801
 355 18 405 0 397 0 407 83 3 403 .615686274509804 .811764705882353 .929411764705
882 14 18 658 402 ?0 373 408 5 6 +0 0 0 373 23 81 1 405 765 31 18 0 402 401 409
 410 83 3 407 .615686274509804 .811764705882353 .929411764705882 80 1 31 411 412
 9000 0 0 0 0 3 6 0 0 0 FFTFTFTTFFFFFFFFF1 81 1 409 766 31 313 0 413 405 414 415
 82 255 3 410 7 9 2 14 313 272 413 ?321 316 311 5 416 +0 0 321 316 23 81 1 413 7
84 355 313 409 0 417 418 419 81 1 414 767 31 337 0 420 409 364 421 82 3 415 7 10
 2 14 337 1 420 ?155 422 335 5 423 +0 0 155 422 23 81 1 420 790 355 337 414 0 42
4 425 426 81 1 364 768 31 16 0 362 414 427 428 82 3 421 7 11 2 81 1 427 769 31 3
24 0 429 364 430 431 82 3 428 7 12 2 14 324 268 429 ?432 321 322 5 433 -0 0 432
 321 23 81 1 429 786 355 324 427 0 418 434 435 81 1 430 770 31 321 0 418 427 436
 437 82 3 431 7 13 2 14 321 270 418 ?324 313 319 5 438 -0 0 324 313 23 81 1 418
 785 355 321 430 0 413 429 439 81 1 436 771 31 440 0 441 430 442 443 82 3 437 7
 14 2 14 440 266 441 ?422 432 444 5 445 +0 0 422 432 23 81 1 441 788 355 440 436
 0 434 424 446 81 1 442 772 31 367 0 447 436 448 449 82 3 443 7 15 2 14 367 276
 447 ?316 140 35 5 370 -0 0 316 140 23 81 1 447 782 355 367 442 0 365 417 450 81
 1 448 773 31 140 0 365 442 451 452 82 3 449 7 16 2 81 1 365 781 355 140 448 0 3
62 447 453 81 1 451 774 31 316 0 417 448 454 455 82 3 452 7 17 2 14 316 274 417
 ?313 367 46 5 456 +0 0 313 367 23 81 1 417 783 355 316 451 0 447 413 457 81 1 4
54 775 31 432 0 434 451 458 459 82 3 455 7 18 2 14 432 262 434 ?440 324 460 5 46
1 +0 0 440 324 23 81 1 434 787 355 432 454 0 429 441 462 81 1 458 776 31 422 0 4
24 454 0 463 82 3 459 7 19 2 14 422 258 424 ?337 440 464 5 465 +0 0 337 440 23 8
1 1 424 789 355 422 458 0 441 420 466 82 3 463 7 20 2 83 3 466 .615686274509804
 .811764705882353 .929411764705882 15 464 524 0 25 422 467 51 465 281 0 422 468
 461 0 --.044 .0265 .002 0 0 -1 .009 -1 0 0 50 468 230 0 155 423 465 0 +0 0 0 0
 0 1 1 0 0 51 461 282 0 432 465 445 0 -.033 -.0265 .002 0 0 -1 .009 -1 0 0 50 44
5 283 0 440 461 433 0 +-.055 -693889390390723e-32 .002 -1 0 0 0 0 1 50 433 284 0
 324 445 438 0 +0 .0375 .002 0 -1 0 0 0 -1 50 438 285 0 321 433 416 0 +.055 1387
778780781446e-32 .002 -1 0 0 0 0 1 50 416 286 0 313 438 456 0 +.0375 -.0375 .002
 1982541115402065e-31 -1 0 1 1982541115402065e-31 0 50 456 287 0 316 416 370 0 +
.02 -.0225 .002 -1 -1156482317317872e-31 0 1156482317317872e-31 -1 0 50 370 288
 0 367 456 368 0 +3469446951953615e-33 -.0075 .002 0 1 0 0 0 1 14 155 142 425 ?3
09 337 153 5 468 -0 0 309 337 23 50 423 3 0 337 0 468 0 +0 0 .002 0 0 1 1 0 0 81
 1 425 791 355 155 469 0 420 357 470 81 1 469 375 31 155 0 425 200 471 472 81 1
 357 792 355 309 399 0 425 353 473 83 3 470 .615686274509804 .811764705882353 .9
29411764705882 81 1 399 756 31 309 0 357 215 391 474 83 3 473 .615686274509804 .
811764705882353 .929411764705882 81 1 215 755 31 213 0 0 149 399 475 82 3 474 7
 0 2 81 1 149 754 31 138 0 0 218 215 476 82 3 475 7 35 1 81 1 218 753 31 216 0 0
 219 149 477 82 3 476 7 34 1 81 1 219 752 31 151 0 0 206 218 478 82 3 477 7 33 1
 81 1 206 751 31 204 0 0 209 219 479 82 3 478 7 32 1 81 1 209 750 31 207 0 0 203
 206 480 82 3 479 7 31 1 81 1 203 749 31 166 0 0 212 209 481 82 3 480 7 30 1 81
 1 212 748 31 210 0 0 24 203 482 82 3 481 7 29 1 81 1 24 747 31 10 0 0 225 212 4
83 82 3 482 7 28 1 81 1 225 746 31 223 0 0 274 24 484 82 3 483 7 27 1 81 1 274 7
45 31 26 0 0 229 225 485 82 3 484 7 26 1 81 1 229 744 31 227 0 0 269 274 486 82
 3 485 7 25 1 81 1 269 743 31 50 0 0 239 229 487 82 3 486 7 24 1 81 1 239 742 31
 237 0 0 271 269 488 82 3 487 7 23 1 81 1 271 741 31 144 0 0 236 239 489 82 3 48
8 7 22 1 81 1 236 740 31 234 0 0 273 271 490 82 3 489 7 21 1 81 1 273 739 31 39
 0 0 233 236 491 82 3 490 7 20 1 81 1 233 738 31 231 0 0 296 273 492 82 3 491 7
 19 1 81 1 296 737 31 295 0 0 289 233 493 82 3 492 7 18 1 81 1 289 736 31 287 0
 0 258 296 494 82 3 493 7 17 1 81 1 258 735 31 256 0 0 251 289 495 82 3 494 7 16
 1 81 1 251 734 31 249 0 0 264 258 496 82 3 495 7 15 1 81 1 264 733 31 262 0 0 2
45 251 497 82 3 496 7 14 1 81 1 245 732 31 243 0 0 261 264 498 82 3 497 7 13 1 8
1 1 261 731 31 259 0 0 248 245 499 82 3 498 7 12 1 81 1 248 730 31 246 0 0 285 2
61 500 82 3 499 7 11 1 81 1 285 729 31 283 0 0 293 248 501 82 3 500 7 10 1 81 1
 293 728 31 291 0 0 222 285 502 82 3 501 7 9 1 81 1 222 727 31 150 0 0 254 293 5
03 82 3 502 7 8 1 81 1 254 726 31 252 0 0 282 222 504 82 3 503 7 7 1 81 1 282 72
5 31 280 0 0 279 254 505 82 3 504 7 6 1 81 1 279 724 31 277 0 0 242 282 506 82 3
 505 7 5 1 81 1 242 723 31 240 0 0 267 279 507 82 3 506 7 4 1 81 1 267 722 31 26
5 0 0 172 242 508 82 3 507 7 3 1 81 1 172 721 31 20 0 0 44 267 509 82 3 508 7 2
 1 82 3 509 7 1 1 81 1 200 372 31 198 0 0 196 469 510 81 1 471 386 31 1 0 511 46
9 57 512 82 3 472 6 1 2 81 1 511 777 513 1 471 13 0 0 514 81 1 57 704 31 53 0 0
 471 81 515 82 3 512 6 0 3 81 1 81 705 31 79 0 0 57 51 516 82 3 515 7 0 0 81 1 5
1 706 31 43 0 0 81 85 517 82 3 516 7 1 0 81 1 85 707 31 83 0 0 51 69 518 82 3 51
7 7 2 0 81 1 69 708 31 67 0 0 85 99 519 82 3 518 7 3 0 81 1 99 709 31 97 0 0 69
 89 520 82 3 519 7 4 0 81 1 89 710 31 87 0 0 99 103 521 82 3 520 7 5 0 81 1 103
 711 31 101 0 0 89 77 522 82 3 521 7 6 0 81 1 77 712 31 75 0 0 103 61 523 82 3 5
22 7 7 0 81 1 61 713 31 59 0 0 77 73 524 82 3 523 7 8 0 81 1 73 714 31 71 0 0 61
 65 525 82 3 524 7 9 0 81 1 65 715 31 63 0 0 73 32 526 82 3 525 7 10 0 81 1 32 7
16 31 94 0 0 65 28 527 82 3 526 7 11 0 82 3 527 7 12 0 80 1 513 528 529 8038 0 0
 0 0 0 0 0 0 0 TTTTTTTTTTTTTFTFT10 81 1 13 778 528 1 511 2 0 0 530 98 255 6 514
 80 97 114 116 32 49 80 1 528 531 532 8017 0 0 0 0 0 0 0 0 0 TTTTTTTTTTTTTFTFT3
 84 255 6 530 Part 179 255 13 532 SDL/TYSA_NAME79 14 529 SDL/TYSA_UNAME81 1 196
 370 31 194 0 0 180 200 533 82 3 510 6 26 1 81 1 180 368 31 178 0 0 163 196 534
 82 3 533 6 24 1 81 1 163 366 31 141 0 0 177 180 535 82 3 534 6 22 1 81 1 177 36
4 31 162 0 0 193 163 536 82 3 535 6 20 1 81 1 193 362 31 191 0 0 186 177 537 82
 3 536 6 18 1 81 1 186 360 31 184 0 0 170 193 538 82 3 537 6 16 1 81 1 170 358 3
1 188 0 0 167 186 539 82 3 538 6 14 1 82 3 539 6 12 1 17 25 0 464 25 25 0 540 10
 0 0 +15 467 259 0 541 422 0 17 541 0 467 541 541 0 201 198 0 0 -17 201 0 542 20
1 201 0 541 198 0 0 +15 542 157 0 201 155 0 17 540 0 543 540 540 0 25 10 0 0 -15
 543 660 0 540 18 0 83 3 462 .615686274509804 .811764705882353 .929411764705882
 15 460 518 0 275 432 544 17 275 0 460 275 275 0 545 26 0 0 +15 544 263 0 546 43
2 0 17 546 0 544 546 546 0 197 194 0 0 -17 197 0 156 197 197 0 546 194 0 0 +15 1
56 156 0 197 155 542 17 545 0 547 545 545 0 275 26 0 0 -15 547 647 0 545 373 0 8
3 3 457 .615686274509804 .811764705882353 .929411764705882 83 3 453 .61568627450
9804 .811764705882353 .929411764705882 83 3 450 .615686274509804 .81176470588235
3 .929411764705882 15 35 275 0 37 367 0 17 37 0 35 29 161 30 47 216 0 350 -17 16
1 0 35 37 36 125 142 162 0 160 +17 36 0 35 161 29 128 40 151 0 136 +17 40 0 135
 104 136 11 36 151 0 345 -83 3 446 .615686274509804 .811764705882353 .9294117647
05882 15 444 265 0 165 440 0 17 165 0 444 66 159 97 108 166 0 0 -17 66 0 444 112
 165 63 332 256 0 323 +17 159 0 444 165 112 105 157 191 0 0 -17 112 0 444 159 66
 109 323 204 0 190 +17 157 0 153 318 154 109 159 191 0 0 +83 3 439 .615686274509
804 .811764705882353 .929411764705882 83 3 435 .615686274509804 .811764705882353
 .929411764705882 83 3 426 .615686274509804 .811764705882353 .929411764705882 83
 3 419 .615686274509804 .811764705882353 .929411764705882 79 9 412 BTI/DetId15 4
08 659 0 548 18 543 17 548 0 408 548 548 0 226 223 0 0 -17 226 0 549 226 226 0 5
48 223 0 0 +15 549 411 0 226 337 0 81 1 356 763 31 352 0 353 385 401 550 82 3 40
6 7 8 2 82 3 550 7 7 2 15 404 646 0 551 373 547 54 19 652 0 373 361 6 0 +.033 -.
0265 .0015 0 0 1 .0095 5e-4 1 0 0 51 361 606 0 309 354 19 0 +.0375 -.037 .0015 -
1 -1982541115402065e-31 0 5e-4 1982541115402065e-31 -1 0 17 551 0 404 551 551 0
 230 227 0 0 -17 230 0 338 230 230 0 551 227 0 0 +15 338 417 0 230 337 549 82 3
 400 7 1 2 81 1 387 759 31 304 0 358 389 384 552 82 3 396 7 4 2 82 3 552 7 3 2 8
2 3 394 7 6 2 82 3 392 7 2 2 83 3 388 .615686274509804 .811764705882353 .9294117
64705882 82 3 386 7 5 2 79 15 383 SDL/TYSA_COLOUR83 3 366 .615686274509804 .8117
64705882353 .929411764705882 83 3 359 .615686274509804 .811764705882353 .9294117
64705882 17 143 0 343 290 148 11 104 144 0 0 -17 146 0 145 108 137 97 341 150 0
 165 +82 3 299 7 0 1 81 1 169 354 31 181 0 0 123 167 553 81 1 123 344 31 121 0 0
 132 169 554 82 3 553 6 8 1 82 3 554 6 14 0 82 3 171 6 10 1 81 1 127 340 31 125
 0 0 130 132 555 82 3 134 6 12 0 81 1 130 338 31 128 0 0 111 127 556 82 3 555 6
 10 0 81 1 111 336 31 109 0 0 115 130 557 82 3 556 6 8 0 81 1 115 334 31 113 0 0
 107 111 558 82 3 557 6 6 0 81 1 107 332 31 105 0 0 119 115 559 82 3 558 6 4 0 8
1 1 119 330 31 117 0 0 0 107 560 82 3 559 6 2 0 82 3 560 6 0 0 81 1 33 718 31 91
 0 0 28 41 561 82 3 561 7 14 0 82 3 45 7 15 0 82 3 34 7 13 0 19 17 300 0 1 0 9 5
 0 S0 74 4 CI16 index_map_offset0 0 1 dCCZ20 15 5 0 0 458 511 13 2 402 0 0 0 0 0
 0 0 0 0 0 0 0 0 0 0 80 1 12 355 562 8040 0 0 0 0 3 5 0 0 0 TTTFFFFFFFFFFFFFF2 8
3 3 14 .615686274509804 .811764705882353 .929411764705882 79 17 562 SDL/TYSA_COL
OUR_21 0 
