**ABCDEFGHIJKLMNOPQRSTUVWXYZabcdefghijklmnopqrstuvwxyz**************************
**PARASOLID !"#$%&'()*+,-./:;<=>?@[\]^_`{|}~0123456789**************************
**PART1;
MC=unknown;
MC_MODEL=unknown;
MC_ID=unknown;
OS=unknown;
OS_RELEASE=unknown;
FRU=Parasolid 37.0.209;
APPL=Onshape;
SITE=unknown;
USER=unknown;
FORMAT=text;
GUISE=transmit;
KEY=BTGapi::writeModels_.xmt;
FILE=BTGapi::writeModels_.xmt;
DATE=2025-06-17T14:01:18 (UTC);
**PART2;
SCH=SCH_3700209_36001;
USFLD_SIZE=0;
**PART3;
**END_OF_HEADER*****************************************************************
T51 : TRANSMIT FILE created by modeller version 370020923 SCH_3700209_36001_1300
6231 0 12 36 CCCI7 lattice222 0 CCCI4 mesh1006 0 I8 polyline1008 0 CCCCCCCDI5 ow
ner1040 0 CCCI16 boundary_lattice222 0 CCCI13 boundary_mesh1006 0 I17 boundary_p
olyline1008 0 CCCA16 index_map_offset0 0 1 dA9 index_map82 0 A17 node_id_index_m
ap82 0 A20 schema_embedding_map82 0 A5 child12 0 A14 lowest_node_id0 0 1 dA16 me
sh_offset_data206 0 Z1 155 2 3 0 0 0 0 0 0 0 1e3 1e-8 0 4 0 1 0 1 2 5 0 6 7 0 0
 0 8 9 0 0 0 0 0 0 0 0 81 255 1 2 149 10 1 11 0 0 0 12 70 11 CI9 list_type0 0 1
 uI10 notransmit0 0 1 lCCCDCCDI12 finger_index0 0 1 dI12 finger_block1012 0 CZ3
 0 4 T1 0 0 5 20 1 13 13 13 255 5 62 0 1 0 14 0 0 15 0 54 255 6 131 0 16 17 0 0
 +0 612323399573677e-34 .0065 0 0 1 .0015 5e-4 1 0 0 31 255 7 101 0 9 18 0 0 +0
 612323399573677e-34 .0065 0 0 1 1 0 0 .001 19 9 CCCCCCI5 frame230 0 CA5 owner12
 0 Z8 19 0 1 15 0 19 0 V0 16 255 9 98 20 ?21 0 22 7 0 0 1 81 1 20 138 23 9 0 0 2
4 25 26 17 255 21 0 27 21 21 0 28 9 0 0 +16 22 92 29 ?30 9 31 18 0 0 1 81 1 29 1
41 23 22 0 0 32 33 34 17 30 0 35 30 30 0 36 22 0 0 +16 31 86 32 ?37 22 38 39 0 0
 1 31 18 95 0 22 39 7 0 -0 1454268073987482e-34 .0065 0 0 1 1 0 0 .002375 31 39
 89 0 31 40 18 0 +0 1454268073987482e-34 .007 0 0 1 1 0 0 .001875 31 40 83 0 38
 41 39 0 -0 612323399573677e-34 .007 0 0 1 1 0 0 .0015 16 38 80 25 ?42 31 43 40
 0 0 1 31 41 50 0 43 44 40 0 +0 1454268073987482e-34 0 0 0 1 1 0 0 .002375 16 43
 41 45 ?46 38 47 41 0 0 1 31 44 51 0 47 0 41 0 +0 612323399573677e-34 0 0 0 1 1
 0 0 .001 16 47 45 48 ?49 43 0 44 0 0 1 81 1 48 69 23 47 0 0 0 45 50 17 49 0 51
 49 49 0 52 47 0 0 +15 255 51 39 0 49 53 54 17 52 0 55 52 52 0 49 47 0 0 -15 55
 58 0 52 14 0 14 255 14 57 56 ?57 0 27 5 58 +0 0 57 0 19 81 1 56 150 59 14 60 0
 0 61 62 14 57 53 61 ?63 14 35 5 64 -0 0 63 14 19 15 27 99 0 21 14 55 51 255 58
 61 0 14 64 17 0 -0 612323399573677e-34 .007 0 0 -1 .001 -1 0 0 13 19 20 0 0 0 0
 0 0 8 14 51 64 60 0 57 65 58 0 -0 1454268073987482e-34 .007 0 0 -1 .002375 -1 0
 0 54 17 118 0 66 58 6 0 +0 1454268073987482e-34 .0065 0 0 1 .001875 5e-4 1 0 0
 14 66 111 67 ?16 53 68 5 17 +0 0 16 53 19 81 1 67 154 59 66 69 0 70 71 72 14 16
 124 71 ?0 66 73 5 6 +0 0 0 66 19 14 53 34 70 ?66 63 51 5 65 -0 0 66 63 19 15 68
 112 0 36 66 74 17 36 0 68 36 36 0 30 22 0 0 -15 74 113 0 75 66 0 17 75 0 74 75
 75 0 37 31 0 0 -17 37 0 76 37 37 0 75 31 0 0 +15 76 87 0 37 63 77 14 63 1 78 ?5
3 57 76 5 79 +0 0 53 57 19 15 77 81 0 42 63 0 17 42 0 77 42 42 0 80 38 0 0 +17 8
0 0 73 80 80 0 42 38 0 0 -15 73 125 0 80 16 81 15 81 126 0 28 16 0 17 28 0 81 28
 28 0 21 9 0 0 -81 1 78 152 59 63 82 0 61 70 83 50 255 79 3 0 63 0 65 0 +0 0 .00
7 0 0 1 1 0 0 50 65 49 0 53 79 64 0 +0 0 0 0 0 1 1 0 0 80 7 CCCCCDI12 legal_owne
rs0 17 1 lCZ1 59 0 84 8001 0 0 0 0 3 5 0 0 0 FFFFTFTFFFFFFFFFF2 81 1 82 145 23 6
3 0 78 60 85 86 81 1 61 151 59 57 85 0 56 78 87 81 1 70 153 59 53 88 0 78 67 89
 83 255 3 83 .615686274509804 .811764705882353 .929411764705882 81 1 88 74 23 53
 0 70 45 24 90 83 3 89 .615686274509804 .811764705882353 .929411764705882 80 1 2
3 91 92 9000 0 0 0 0 3 6 0 0 0 FFTFTFTTFFFFFFFFF1 81 1 45 71 23 43 0 0 48 88 93
 81 1 24 77 23 1 0 94 88 20 95 82 255 3 90 8 1 2 81 1 94 147 96 1 24 11 0 0 97 8
2 3 95 8 0 3 80 1 96 98 99 8038 0 0 0 0 0 0 0 0 0 TTTTTTTTTTTTTFTFT10 81 1 11 14
8 98 1 94 2 0 0 100 98 255 6 97 80 97 114 116 32 49 80 1 98 101 102 8017 0 0 0 0
 0 0 0 0 0 TTTTTTTTTTTTTFTFT3 84 255 6 100 Part 179 255 13 102 SDL/TYSA_NAME79 1
4 99 SDL/TYSA_UNAME82 3 93 8 2 1 79 9 92 BTI/DetId81 1 85 146 23 57 0 61 82 0 10
3 83 3 87 .615686274509804 .811764705882353 .929411764705882 82 3 103 9 4 2 81 1
 60 144 23 14 0 56 69 82 104 82 3 86 9 3 2 81 1 69 143 23 66 0 67 33 60 105 82 3
 104 9 2 2 81 1 33 142 23 16 0 71 29 69 106 82 3 105 9 1 2 81 1 71 155 59 16 33
 0 67 0 107 82 3 106 9 0 2 83 3 107 .615686274509804 .811764705882353 .929411764
705882 79 15 84 SDL/TYSA_COLOUR83 3 72 .615686274509804 .811764705882353 .929411
764705882 15 35 93 0 30 57 108 15 108 54 0 46 57 0 17 46 0 108 46 46 0 109 43 0
 0 +17 109 0 54 109 109 0 46 43 0 0 -15 54 40 0 109 53 0 83 3 62 .61568627450980
4 .811764705882353 .929411764705882 82 3 50 8 0 1 81 1 25 139 23 38 0 0 20 32 11
0 81 1 32 140 23 31 0 0 25 29 111 82 3 110 9 1 1 82 3 111 9 2 1 82 3 34 9 3 1 82
 3 26 9 0 1 19 15 63 0 1 0 8 5 0 S0 74 4 CI16 index_map_offset0 0 1 dCCZ20 13 5
 0 0 85 94 11 2 71 0 0 0 0 0 0 0 0 0 0 0 0 0 0 0 80 1 10 59 112 8040 0 0 0 0 3 5
 0 0 0 TTTFFFFFFFFFFFFFF2 83 3 12 .615686274509804 .811764705882353 .92941176470
5882 79 17 112 SDL/TYSA_COLOUR_21 0 
